<svg height="24" viewBox="0 0 24 24" width="24" xmlns="http://www.w3.org/2000/svg" xmlns:xlink="http://www.w3.org/1999/xlink"><mask id="a" fill="#fff"><path d="m12 17c1.1 0 2-.9 2-2s-.9-2-2-2-2 .9-2 2 .9 2 2 2zm6-9h-1v-2c0-2.76-2.24-5-5-5s-5 2.24-5 5h1.9c0-1.71 1.39-3.1 3.1-3.1s3.1 1.39 3.1 3.1v2h-9.1c-1.1 0-2 .9-2 2v10c0 1.1.9 2 2 2h12c1.1 0 2-.9 2-2v-10c0-1.1-.9-2-2-2zm0 12h-12v-10h12z" fill="#fff" fill-rule="evenodd"/></mask><g fill="#80868b" fill-rule="evenodd" mask="url(#a)"><path d="m0 0h24v24h-24z"/></g></svg>